<?xml version="1.0"?>
<svg xmlns="http://www.w3.org/2000/svg" height="512" viewBox="0 0 64 64" width="512" class=""><g><g id="Glyph"><path d="m56 2a2.986 2.986 0 0 0 -2.7 4.29l-1.01 1.01a2.986 2.986 0 0 0 -3.99 3.99l-1.01 1.01a2.986 2.986 0 0 0 -3.99 3.99l-1.01 1.01a2.986 2.986 0 0 0 -3.99 3.99l-.71.71h-1.59v-1a1 1 0 0 0 -1-1h-6a1 1 0 0 0 -1 1v1h-1.59l-.71-.71a2.986 2.986 0 0 0 -3.99-3.99l-1.01-1.01a2.986 2.986 0 0 0 -3.99-3.99l-1.01-1.01a2.986 2.986 0 0 0 -3.99-3.99l-1.01-1.01a3.023 3.023 0 1 0 -1.41 1.41l1.01 1.01a2.986 2.986 0 0 0 3.99 3.99l1.01 1.01a2.986 2.986 0 0 0 3.99 3.99l1.01 1.01a2.986 2.986 0 0 0 3.99 3.99l1 1.01a1.033 1.033 0 0 0 .71.29h2a1.033 1.033 0 0 0 .29.71l1.43 1.42a35.424 35.424 0 0 0 -4.97.9 5.168 5.168 0 0 0 -3.75 4.97v24a5.184 5.184 0 0 0 3.74 4.96 27.947 27.947 0 0 0 7.26 1.04 27.947 27.947 0 0 0 7.26-1.04 5.184 5.184 0 0 0 3.74-4.96v-24a5.168 5.168 0 0 0 -3.75-4.97 35.424 35.424 0 0 0 -4.97-.9l1.43-1.42a1.033 1.033 0 0 0 .29-.71h2a1.033 1.033 0 0 0 .71-.29l1-1.01a2.986 2.986 0 0 0 3.99-3.99l1.01-1.01a2.986 2.986 0 0 0 3.99-3.99l1.01-1.01a2.986 2.986 0 0 0 3.99-3.99l1.01-1.01a3 3 0 1 0 1.29-5.7zm-48 4a1 1 0 1 1 1-1 1 1 0 0 1 -1 1zm5 5a1 1 0 1 1 1-1 1 1 0 0 1 -1 1zm5 5a1 1 0 1 1 1-1 1 1 0 0 1 -1 1zm5 5a1 1 0 1 1 1-1 1 1 0 0 1 -1 1zm9 7a1 1 0 1 1 -1 1 1 1 0 0 1 1-1zm-5 29h-2v-23h2zm4 0h-2v-9h2zm4 0h-2v-9h2zm4 0h-2v-9h2zm0-23v12h-10v-12zm2-13a1 1 0 1 1 1-1 1 1 0 0 1 -1 1zm5-5a1 1 0 1 1 1-1 1 1 0 0 1 -1 1zm5-5a1 1 0 1 1 1-1 1 1 0 0 1 -1 1zm5-5a1 1 0 1 1 1-1 1 1 0 0 1 -1 1z" data-original="#000000" class="active-path" data-old_color="#000000" style="fill:#FFFFFF"/><path d="m31 36h6v8h-6z" data-original="#000000" class="active-path" data-old_color="#000000" style="fill:#FFFFFF"/></g></g> </svg>
