<?xml version="1.0"?>
<svg xmlns="http://www.w3.org/2000/svg" id="Capa_1" enable-background="new 0 0 512 512" height="512" viewBox="0 0 512 512" width="512" class=""><g><g><path d="m247.717 99.4h-16.567c-4.142 0-7.5 3.358-7.5 7.5s3.358 7.5 7.5 7.5h16.567c4.142 0 7.5-3.358 7.5-7.5s-3.358-7.5-7.5-7.5z" data-original="#000000" class="active-path" style="fill:#FFFFFF" data-old_color="#000000"/><path d="m230.367 73.767c0-4.142-3.358-7.5-7.5-7.5h-16.567c-4.142 0-7.5 3.358-7.5 7.5s3.358 7.5 7.5 7.5h16.567c4.142 0 7.5-3.358 7.5-7.5z" data-original="#000000" class="active-path" style="fill:#FFFFFF" data-old_color="#000000"/><path d="m272.567 66.267h-16.567c-4.142 0-7.5 3.358-7.5 7.5s3.358 7.5 7.5 7.5h16.567c4.142 0 7.5-3.358 7.5-7.5s-3.358-7.5-7.5-7.5z" data-original="#000000" class="active-path" style="fill:#FFFFFF" data-old_color="#000000"/><path d="m421.95 190.517h-42.483v-1.066c0-8.547-6.953-15.5-15.5-15.5h-1.067v-67.051c0-58.945-47.955-106.9-106.9-106.9s-106.9 47.955-106.9 106.9v67.051h-1.067c-8.547 0-15.5 6.953-15.5 15.5v1.066h-42.483c-8.547 0-15.5 6.953-15.5 15.5v33.7c0 5.941 3.364 11.106 8.284 13.706v2.577c0 84.43 60.741 154.929 140.816 170.123v37.743h-92.183c-8.547 0-15.5 6.953-15.5 15.5v25.134c0 4.142 3.358 7.5 7.5 7.5h265.066c4.142 0 7.5-3.358 7.5-7.5v-25.133c0-8.547-6.953-15.5-15.5-15.5h-92.183v-37.715c34.429-6.482 66.038-23.288 91.196-48.923 2.901-2.956 2.856-7.705-.1-10.606-2.957-2.9-7.705-2.857-10.606.1-30.026 30.596-70.1 47.445-112.84 47.445-87.213 0-158.167-70.953-158.167-158.167v-.783h18.133v.782c0 77.214 62.819 140.033 140.033 140.033s140.034-62.819 140.034-140.033v-.783h18.133v.783c0 31.24-9.135 61.47-26.417 87.424-2.296 3.448-1.362 8.103 2.086 10.399 3.447 2.296 8.104 1.362 10.4-2.086 18.927-28.424 28.931-61.53 28.931-95.738v-2.577c4.92-2.601 8.284-7.765 8.284-13.706v-33.7c0-8.546-6.953-15.499-15.5-15.499zm-40.917 288.85v17.633h-250.066v-17.633c0-.276.224-.5.5-.5h99.683 49.7 99.683c.276 0 .5.224.5.5zm-107.683-51.054v35.554h-34.7v-35.567c5.708.57 11.495.866 17.35.866 5.834.001 11.623-.287 17.35-.853zm-109.25-321.413c0-50.674 41.226-91.9 91.9-91.9s91.9 41.226 91.9 91.9v67.051h-183.8zm-16.567 82.551c0-.276.224-.5.5-.5h207.357.01s.006 0 .01 0h8.557c.276 0 .5.224.5.5v8.566 49.7.283c0 .276-.224.5-.5.5h-135.52c-4.142 0-7.5 3.358-7.5 7.5s3.358 7.5 7.5 7.5h119.145c-3.829 47.179-43.443 84.4-91.592 84.4s-87.764-37.221-91.592-84.4h34.04c4.142 0 7.5-3.358 7.5-7.5s-3.358-7.5-7.5-7.5h-50.414c-.276 0-.5-.224-.5-.5v-.283-49.7-8.566zm-57.199 50.766h-.284c-.276 0-.5-.224-.5-.5v-33.7c0-.276.224-.5.5-.5h42.483v34.7h-9.066zm290.699 15.783c0 68.943-56.09 125.033-125.033 125.033s-125.033-56.09-125.033-125.033v-.783h3.36c2.601 4.919 7.765 8.283 13.706 8.283h1.334c3.863 55.459 50.21 99.4 106.633 99.4s102.77-43.942 106.633-99.4h1.334c5.941 0 11.105-3.364 13.706-8.283h3.36zm7.5-15.783h-9.066v-34.7h42.483c.276 0 .5.224.5.5v33.7c0 .276-.224.5-.5.5h-.284z" data-original="#000000" class="active-path" style="fill:#FFFFFF" data-old_color="#000000"/></g></g> </svg>
