<?xml version="1.0"?>
<svg xmlns="http://www.w3.org/2000/svg" id="Layer_1" enable-background="new 0 0 512 512" height="512" viewBox="0 0 512 512" width="512" class=""><g><path d="m512 256v186.5c0 38.322-31.178 69.5-69.5 69.5s-69.5-31.178-69.5-69.5v-107c0-27.992 16.659-53.125 42.441-64.03 10.174-4.305 21.909.456 26.211 10.629 4.303 10.173-.456 21.908-10.629 26.211-10.949 4.63-18.023 15.303-18.023 27.19v107c0 16.267 13.233 29.5 29.5 29.5s29.5-13.233 29.5-29.5v-186.5c0-119.103-96.897-216-216-216s-216 96.897-216 216v186.5c0 16.267 13.233 29.5 29.5 29.5s29.5-13.233 29.5-29.5v-107c0-11.887-7.074-22.56-18.023-27.19-10.173-4.303-14.932-16.038-10.629-26.211 4.303-10.172 16.039-14.931 26.211-10.629 25.782 10.905 42.441 36.038 42.441 64.03v107c0 38.322-31.178 69.5-69.5 69.5s-69.5-31.178-69.5-69.5v-186.5c0-68.38 26.629-132.667 74.98-181.019s112.64-74.981 181.02-74.981 132.667 26.628 181.02 74.98c48.351 48.353 74.98 112.64 74.98 181.02zm-175 17c0 16.278-8.388 30.981-22.438 39.332l-65.867 39.143c-.001 0-.001 0-.001 0-7.366 4.378-15.487 6.57-23.615 6.57-7.847 0-15.699-2.042-22.892-6.135-14.519-8.262-23.187-23.128-23.187-39.767v-78.285c0-16.64 8.668-31.506 23.188-39.768 14.643-8.332 32.028-8.167 46.507.436l65.867 39.143c14.05 8.349 22.438 23.052 22.438 39.331zm-40 0c0-1.478-.498-3.534-2.873-4.945l-65.867-39.142c-1.135-.675-2.212-.913-3.168-.913-1.335 0-2.434.464-3.122.856-1.354.771-2.97 2.264-2.97 5.001v78.285c0 2.737 1.615 4.23 2.97 5.002 1.182.672 3.571 1.561 6.291-.057l65.866-39.143c2.375-1.41 2.873-3.466 2.873-4.944z" data-original="#000000" class="active-path" style="fill:#FFFFFF" data-old_color="#000000"/></g> </svg>
