<?xml version="1.0"?>
<svg xmlns="http://www.w3.org/2000/svg" id="Capa_1" enable-background="new 0 0 512 512" height="512px" viewBox="0 0 512 512" width="512px"><g><g><path d="m36.323 47.299c4.14 0 7.496-3.355 7.496-7.496v-22.313c0-1.378 1.121-2.499 2.499-2.499h279.974c1.378 0 2.499 1.12 2.499 2.499v81.643c0 4.14 3.356 7.496 7.496 7.496s7.496-3.355 7.496-7.496v-81.643c0-9.644-7.846-17.49-17.49-17.49h-279.976c-9.644 0-17.49 7.846-17.49 17.49v22.313c0 4.141 3.356 7.496 7.496 7.496z" data-original="#000000" class="active-path" data-old_color="#000000" fill="#FFFFFF"/><path d="m455.689 192.087h-5.249v-35.865c0-15.154-12.329-27.484-27.484-27.484h-327.868c-15.155 0-27.484 12.33-27.484 27.484v26.613h-21.287c-1.378 0-2.499-1.12-2.499-2.499v-105.658c0-4.14-3.356-7.496-7.496-7.496s-7.496 3.355-7.496 7.496v105.658c0 9.644 7.846 17.49 17.49 17.49h21.286v45.119c0 15.154 12.329 27.484 27.484 27.484h327.867c15.155 0 27.484-12.33 27.484-27.484v-35.866h5.249c6.889 0 12.493 5.604 12.493 12.493v41.149c0 8.656-6.464 16.101-15.035 17.316l-173.7 24.631c-15.126 2.145-26.709 14.737-27.825 29.779h-21.678c-6.889 0-12.493 5.604-12.493 12.493v16.162c0 9.252 1.9 18.232 5.646 26.691 2.894 6.536 4.362 13.474 4.362 20.621v91.094c0 6.889 5.604 12.493 12.493 12.493h38.138c6.889 0 12.493-5.604 12.493-12.493v-16.814c0-4.14-3.356-7.496-7.496-7.496s-7.496 3.355-7.496 7.496v14.315h-33.141v-88.596c0-9.252-1.9-18.232-5.647-26.692-2.894-6.535-4.362-13.473-4.362-20.62v-13.663h53.162v13.663c0 7.147-1.467 14.085-4.362 20.62-3.747 8.46-5.647 17.44-5.647 26.692v37.708c0 4.14 3.356 7.496 7.496 7.496s7.496-3.355 7.496-7.496v-37.708c0-7.147 1.468-14.085 4.362-20.621 3.746-8.459 5.646-17.439 5.646-26.691v-16.161c0-6.889-5.604-12.493-12.493-12.493h-21.398c1.059-7.605 7.08-13.834 14.852-14.936l173.7-24.631c15.918-2.257 27.921-16.083 27.921-32.159v-41.149c0-15.155-12.33-27.485-27.484-27.485zm-293.969 2.298c-1.387-.726-2.896-1.085-4.398-1.085-1.89 0-3.77.568-5.388 1.689-3.261 2.261-7.091 3.457-11.074 3.457-10.746 0-19.489-8.743-19.489-19.489v-35.229h270.925v35.207c0 10.746-8.743 19.489-19.489 19.489-9.695 0-17.992-7.231-19.3-16.82-.398-2.919-2.175-5.524-4.751-6.97-2.574-1.443-5.72-1.601-8.416-.42-2.465 1.079-5.088 1.627-7.796 1.627-6.235 0-11.946-2.882-15.667-7.906-1.772-2.393-4.614-3.822-7.602-3.822s-5.83 1.429-7.601 3.821c-3.721 5.024-9.433 7.907-15.668 7.907h-72.717c-4.14 0-7.496 3.355-7.496 7.496v22.91c0 10.746-8.743 19.489-19.489 19.489s-19.489-8.743-19.489-19.489v-3.446c0-3.545-1.952-6.77-5.095-8.416zm273.728 48.56c0 6.889-5.604 12.493-12.493 12.493h-327.867c-6.889 0-12.493-5.604-12.493-12.493v-86.723c0-6.889 5.604-12.493 12.493-12.493h11.292v35.229c0 19.013 15.468 34.48 34.48 34.48 3.913 0 7.744-.653 11.367-1.919 2.545 16.52 16.858 29.209 34.078 29.209 19.013 0 34.48-15.468 34.48-34.48v-15.414h65.221c8.643 0 16.964-3.302 23.269-9.053 6.304 5.752 14.625 9.053 23.269 9.053 2.584 0 5.127-.283 7.607-.843 4.658 13.718 17.721 23.426 32.657 23.426 19.013 0 34.48-15.468 34.48-34.48v-35.207h15.668c6.889 0 12.493 5.604 12.493 12.493v86.722z" data-original="#000000" class="active-path" data-old_color="#000000" fill="#FFFFFF"/><path d="m135.425 282.847c-4.372 0-8.49 2.134-11.015 5.706-17.984 25.432-17.984 34.355-17.984 37.287 0 15.99 13.009 28.999 28.999 28.999s28.999-13.009 28.999-28.999c0-2.932 0-11.855-17.983-37.286-2.526-3.573-6.644-5.707-11.016-5.707zm0 57.001c-7.724 0-14.008-6.284-14.008-14.008 0-3.15 3.698-12.036 14.008-26.884 10.309 14.847 14.008 23.735 14.008 26.884 0 7.724-6.284 14.008-14.008 14.008z" data-original="#000000" class="active-path" data-old_color="#000000" fill="#FFFFFF"/></g></g> </svg>
