<?xml version="1.0"?>
<svg xmlns="http://www.w3.org/2000/svg" xmlns:xlink="http://www.w3.org/1999/xlink" version="1.1" id="Capa_1" x="0px" y="0px" viewBox="0 0 496 496" style="enable-background:new 0 0 496 496;" xml:space="preserve" width="512" height="512" class=""><g><g>
	<g>
		<g>
			<path d="M447.812,390.192c-4.432-26.576-20.68-49.064-43.592-61.984c16.904-14.064,19.616-38.136,19.744-39.408l0.888-8.8h-8.848     c-9.44,0-17.56-1.352-23.72-2.88c10.112-11.288,15.032-25.768,15.312-26.584l2.712-8.176l-8.352-2.112     c-10.608-2.688-25.952-10.008-25.952-16.248h-16c0,15.784,17.616,24.8,29.216,29.024c-3.504,7.08-9.336,16.088-16.792,19.816     L358.116,280l14.312,7.16c0.624,0.312,13.664,6.72,33.784,8.432c-2.48,8.32-8.12,20.328-20.032,24.704l-66.176-22.064V288h-16     v14.76c-1.448,4.016-11.224,25.24-56,25.24c-44.352,0-54.408-20.984-56-25.28V288h-16v10.232l-66.176,22.056     c-11.912-4.384-17.552-16.392-20.032-24.704c20.12-1.704,33.16-8.12,33.784-8.432L137.892,280l-14.312-7.16     c-7.4-3.696-13.248-12.728-16.776-19.824c11.608-4.224,29.2-13.24,29.2-29.016h-16c0,6.24-15.344,13.56-25.952,16.24     l-8.368,2.112l2.728,8.176c0.272,0.816,5.2,15.32,15.328,26.608C97.612,278.664,89.508,280,80.004,280h-8.848l0.888,8.808     c0.128,1.272,2.84,25.336,19.744,39.408c-22.912,12.92-39.168,35.408-43.592,61.984L30.556,496h434.888L447.812,390.192z      M179.732,313.856C186.164,325.024,203.58,344,248.004,344s61.84-18.976,68.272-30.144l19.664,6.552     c-0.368,13.84-18.768,26.032-38.312,38.92c-18.528,12.224-38.744,25.568-49.624,43.928     c-10.872-18.36-31.096-31.704-49.624-43.928c-19.544-12.888-37.944-25.08-38.312-38.92L179.732,313.856z M49.452,480     l3.872-23.272l50.968,6.368c0.472,6.968,1.552,12.544,2.904,16.904H49.452z M216.004,440v40h-91.656     c-1.736-3.472-4.344-10.816-4.344-24c0-20.208,13.544-34.224,13.68-34.368l-5.68-5.632l-5.656-5.656     c-0.664,0.664-14.448,14.768-17.64,36.68l-48.744-6.096l8.016-48.104c4.392-26.368,22.88-48.008,48.248-56.464l32.296-10.768     c3.312,19.512,23.608,32.952,45.04,47.096c22.152,14.616,44.928,29.696,49.536,51.312h-7.096     C223.18,424,216.004,431.176,216.004,440z M264.004,480h-32v-40h32V480z M371.692,480h-91.688v-40c0-8.824-7.176-16-16-16H256.9     c4.608-21.616,27.384-36.696,49.536-51.312c21.44-14.144,41.736-27.584,45.04-47.096l32.296,10.768     c25.376,8.456,43.864,30.096,48.256,56.472l8.016,48.104l-48.744,6.096c-3.192-21.92-16.976-36.016-17.64-36.68l-11.312,11.312     c0.136,0.128,13.656,13.888,13.656,34.336C376.004,469.272,373.364,476.624,371.692,480z M388.812,480     c1.344-4.36,2.432-9.936,2.904-16.904l50.968-6.368L446.556,480H388.812z" data-original="#000000" class="active-path" style="fill:#FFFFFF" data-old_color="#000000"/>
			<path d="M147.54,215.552c4.08,14.04,11.616,26.912,22.24,37.536l31.2,31.2C208.532,291.84,218.572,296,229.26,296h37.496     c10.68,0,20.728-4.16,28.28-11.712l31.2-31.2c10.624-10.624,18.16-23.504,22.24-37.536c19.928-2.256,35.528-19.024,35.528-39.552     c0-9.04-3.128-17.296-8.208-24h64.208c13.232,0,24-10.768,24-24s-10.768-24-24-24h-73.192C358.948,45.392,308.732,0,248.004,0     c-66.168,0-120,53.832-120,120v24.208c-9.656,7.312-16,18.784-16,31.792C112.004,196.528,127.604,213.296,147.54,215.552z      M335.996,190.864c0.008,19.232-7.48,37.312-21.08,50.912l-31.2,31.2c-4.464,4.464-10.648,7.024-16.968,7.024h-37.496     c-6.32,0-12.496-2.56-16.968-7.024l-31.2-31.2c-13.6-13.6-21.088-31.68-21.088-50.912V152h176V190.864z M208.812,136     c3.72-18.232,19.872-32,39.192-32s35.472,13.768,39.192,32H208.812z M368.004,120h72c4.408,0,8,3.592,8,8s-3.592,8-8,8h-72V120z      M368.004,176c0,10.552-6.896,19.44-16.376,22.64c0.224-2.568,0.376-5.16,0.376-7.776v-37.392     C361.292,156.784,368.004,165.584,368.004,176z M144.004,120c0-57.344,46.656-104,104-104s104,46.656,104,104v16h-48.64     c-3.904-27.096-27.208-48-55.36-48s-51.456,20.904-55.36,48h-48.64V120z M144.004,153.472v37.392     c0,2.616,0.152,5.208,0.376,7.784c-9.48-3.208-16.376-12.096-16.376-22.648C128.004,165.584,134.716,156.784,144.004,153.472z" data-original="#000000" class="active-path" style="fill:#FFFFFF" data-old_color="#000000"/>
		</g>
	</g>
</g></g> </svg>
