<?xml version='1.0' encoding='iso-8859-1'?>
<!DOCTYPE svg PUBLIC '-//W3C//DTD SVG 1.1//EN' 'http://www.w3.org/Graphics/SVG/1.1/DTD/svg11.dtd'>
<svg version="1.1" xmlns="http://www.w3.org/2000/svg" viewBox="0 0 218.839 218.839" xmlns:xlink="http://www.w3.org/1999/xlink" enable-background="new 0 0 218.839 218.839">
  <path d="m218.767,185.863c-2.648-19.079-10.263-36.814-21.629-51.688 0.141-2.029 0.218-4.075 0.218-6.139 0-34.667-20.167-64.709-49.383-79.022-7.199-17.277-18.749-32.736-33.947-44.566-2.709-2.108-6.505-2.109-9.214,0-15.197,11.83-26.748,27.29-33.946,44.566-29.216,14.313-49.383,44.355-49.383,79.022-3.55271e-15,2.064 0.077,4.109 0.218,6.138-11.366,14.874-18.982,32.61-21.629,51.688-0.472,3.401 1.426,6.688 4.607,7.98 13.185,5.354 27.09,8.069 41.328,8.069 0.002,0-0.001,0 0,0 4.797,0 9.577-0.335 14.312-0.958 14.031,9.478 30.931,15.018 49.1,15.018 18.17,0 35.07-5.54 49.102-15.018 4.735,0.623 9.515,0.958 14.313,0.958 14.237,0 28.142-2.715 41.327-8.069 3.18-1.291 5.078-4.578 4.606-7.979zm-64.067-.712c-11.721-2.271-22.981-6.704-33.077-13.086 7.876-7.381 14.61-15.882 20.087-25.368 5.478-9.489 9.473-19.573 11.928-30.088 10.72,5.616 20.158,13.18 27.922,22.157-2.771,18.713-12.682,35.121-26.86,46.385zm-117.422-46.387c7.764-8.976 17.202-16.54 27.922-22.156 2.454,10.514 6.45,20.599 11.928,30.086 5.476,9.486 12.212,17.987 20.09,25.37-10.096,6.382-21.357,10.814-33.08,13.086-14.178-11.263-24.088-27.671-26.86-46.386zm104.162-43.284c-10.333-3.132-21.065-4.715-32.022-4.715-10.955,0-21.687,1.583-32.019,4.715-0.496-12.092 1.335-24.048 5.228-35.261 8.301-3.291 17.334-5.12 26.792-5.12 9.458,0 18.493,1.829 26.793,5.121 3.893,11.212 5.724,23.169 5.228,35.26zm-51.321,43.715c-5.18-8.972-8.826-18.557-10.872-28.563 9.688-3.231 19.812-4.867 30.171-4.867 10.361,0 20.484,1.635 30.174,4.868-2.046,10.007-5.691,19.591-10.872,28.564-5.18,8.972-11.657,16.921-19.299,23.695-7.645-6.776-14.122-14.726-19.302-23.697zm91.485-21.545c-7.62-6.598-16.177-12.198-25.496-16.552 0.887-10.232 0.319-20.427-1.578-30.311 14.355,11.335 24.362,27.932 27.074,46.863zm-72.186-97.538c7.22,6.396 13.338,13.799 18.239,21.894-5.887-1.247-11.987-1.907-18.239-1.907-6.252,0-12.352,0.661-18.238,1.907 4.901-8.094 11.019-15.498 18.238-21.894zm-45.109,50.675c-1.897,9.883-2.465,20.078-1.578,30.31-9.319,4.354-17.876,9.955-25.496,16.552 2.712-18.93 12.719-35.527 27.074-46.862zm-38.511,84.462c3.862,11.838 10.169,22.581 18.328,31.626-9.637-0.188-19.088-1.803-28.186-4.85 1.931-9.464 5.289-18.475 9.858-26.776zm83.62,45.723c-9.564,0-18.694-1.869-27.071-5.23 9.589-3.33 18.724-7.951 27.074-13.781 8.35,5.83 17.483,10.451 27.071,13.781-8.378,3.361-17.509,5.23-27.074,5.23zm65.294-14.098c8.159-9.045 14.466-19.787 18.328-31.625 4.568,8.301 7.927,17.312 9.858,26.775-9.098,3.048-18.549,4.662-28.186,4.85z"/>
</svg>
